<svg width="18" height="18" viewBox="0 0 18 18" fill="none" xmlns="http://www.w3.org/2000/svg">
<path d="M9 18C13.9358 18 18 13.9358 18 9C18 4.07287 13.9271 0 8.99137 0C4.06424 0 0 4.07287 0 9C0 13.9358 4.06424 18 9 18ZM6.21285 12.6759C5.721 12.6759 5.33269 12.2876 5.33269 11.7785C5.33269 11.5542 5.42761 11.3298 5.59156 11.1659L7.74017 9.01726L5.59156 6.86002C5.42761 6.69607 5.33269 6.47172 5.33269 6.24736C5.33269 5.74688 5.721 5.35858 6.21285 5.35858C6.48035 5.35858 6.67881 5.44487 6.85139 5.61745L9 7.75743L11.1659 5.60882C11.3471 5.42761 11.5455 5.34995 11.8044 5.34995C12.2963 5.34995 12.6846 5.73826 12.6846 6.23011C12.6846 6.47172 12.6069 6.67881 12.4257 6.86002L10.2685 9.01726L12.4171 11.1572C12.5896 11.3212 12.6759 11.5455 12.6759 11.7785C12.6759 12.2876 12.2876 12.6759 11.7872 12.6759C11.5283 12.6759 11.3039 12.5896 11.14 12.4171L9 10.2771L6.86865 12.4171C6.69607 12.5896 6.48035 12.6759 6.21285 12.6759Z" fill="#9A9A9A"/>
</svg>
