<svg width="27" height="41" viewBox="0 0 27 41" fill="none" xmlns="http://www.w3.org/2000/svg">
<g clip-path="url(#clip0_335_794)">
<path d="M6.98563 5.11283V1.70428C6.98563 0.762866 7.76735 0 8.73203 0H12.2248C13.1895 0 13.9713 0.762866 13.9713 1.70428V5.11283C13.9713 6.05424 13.1895 6.8171 12.2248 6.8171C11.2602 6.8171 10.4784 7.57997 10.4784 8.52138V32.4299C10.4784 33.3713 9.69671 34.1342 8.73203 34.1342C7.76735 34.1342 6.98563 34.8971 6.98563 35.8385V39.293C6.98563 40.2344 6.2039 40.9973 5.23922 40.9973H1.74641C0.781725 41 0 40.2371 0 39.2957V35.8412C0 34.8998 0.781725 34.1369 1.74641 34.1369C2.71109 34.1369 3.49281 33.374 3.49281 32.4326V8.52138C3.49281 7.57997 4.27454 6.8171 5.23922 6.8171C6.2039 6.8171 6.98563 6.05424 6.98563 5.11283Z" fill="white"/>
<path d="M20.0153 5.11283V1.70428C20.0153 0.762866 20.797 0 21.7617 0H25.2545C26.2192 0 27.0009 0.762866 27.0009 1.70428V5.11283C27.0009 6.05424 26.2192 6.8171 25.2545 6.8171C24.2898 6.8171 23.5081 7.57997 23.5081 8.52138V32.4299C23.5081 33.3713 22.7264 34.1342 21.7617 34.1342C20.797 34.1342 20.0153 34.8971 20.0153 35.8385V39.293C20.0153 40.2344 19.2335 40.9973 18.2689 40.9973H14.776C13.8114 40.9973 13.0296 40.2344 13.0296 39.293V35.8385C13.0296 34.8971 13.8114 34.1342 14.776 34.1342C15.7407 34.1342 16.5225 33.3713 16.5225 32.4299V8.52138C16.5225 7.57997 17.3042 6.8171 18.2689 6.8171C19.2335 6.8171 20.0153 6.05424 20.0153 5.11283Z" fill="white"/>
</g>
<defs>
<clipPath id="clip0_335_794">
<rect width="27" height="41" fill="white"/>
</clipPath>
</defs>
</svg>
