<svg width="19" height="19" viewBox="0 0 19 19" fill="none" xmlns="http://www.w3.org/2000/svg">
<path d="M9.5 19C14.71 19 19 14.71 19 9.5C19 4.29914 14.7009 0 9.49089 0C4.29003 0 0 4.29914 0 9.5C0 14.71 4.29003 19 9.5 19ZM9.5 16.9142C5.39214 16.9142 2.09492 13.6079 2.09492 9.5C2.09492 5.39214 5.38303 2.08581 9.49089 2.08581C13.6079 2.08581 16.9051 5.39214 16.9142 9.5C16.9233 13.6079 13.6079 16.9142 9.5 16.9142ZM9.49089 14.5642C9.7186 14.5642 9.89166 14.3912 9.89166 14.1453V13.5532C11.4128 13.4166 12.524 12.5604 12.524 11.1668C12.524 9.92809 11.7315 9.20853 10.1467 8.90796L9.89166 8.85331V6.75839C10.4291 6.84947 10.8025 7.16826 10.9756 7.66011C11.1304 7.97891 11.3399 8.15197 11.686 8.15197C12.0868 8.15197 12.36 7.89693 12.36 7.52349C12.36 7.41419 12.3327 7.30489 12.3054 7.19559C12.0594 6.27565 11.1486 5.60163 9.89166 5.48322V4.88207C9.89166 4.63615 9.7186 4.4722 9.49089 4.4722C9.25407 4.4722 9.08102 4.63615 9.08102 4.88207V5.48322C7.61457 5.61074 6.56711 6.49425 6.56711 7.78763C6.56711 8.98993 7.36865 9.68217 8.88063 10.0283L9.08102 10.0738V12.2963C8.39789 12.1961 8.00623 11.8317 7.8605 11.3399C7.72387 11.0029 7.49616 10.8298 7.15916 10.8298C6.74017 10.8298 6.47603 11.1031 6.47603 11.4947C6.47603 11.604 6.49425 11.7133 6.53068 11.8317C6.79482 12.7517 7.74209 13.4439 9.08102 13.5441V14.1453C9.08102 14.4003 9.25407 14.5642 9.49089 14.5642ZM9.08102 8.65292L9.01726 8.63471C8.34324 8.44343 8.03356 8.14286 8.03356 7.68744C8.03356 7.22291 8.43432 6.84036 9.08102 6.74017V8.65292ZM9.89166 10.2742L10.0556 10.3106C10.7934 10.5019 11.0666 10.8025 11.0666 11.2852C11.0666 11.8226 10.675 12.2052 9.89166 12.2963V10.2742Z" fill="#4D4E50"/>
</svg>
