<svg width="12" height="18" viewBox="0 0 12 18" fill="none" xmlns="http://www.w3.org/2000/svg">
<path d="M1.1197 18H3.52875C4.30914 18 4.63714 17.6503 4.63714 16.8459V1.15415C4.63714 0.338083 4.30914 0 3.52875 0H1.1197C0.339303 0 0 0.349741 0 1.15415V16.8459C0 17.6503 0.339303 18 1.1197 18ZM8.47125 18H10.8916C11.6607 18 12 17.6503 12 16.8459V1.15415C12 0.338083 11.6607 0 10.8916 0H8.47125C7.70217 0 7.36287 0.349741 7.36287 1.15415V16.8459C7.36287 17.6503 7.70217 18 8.47125 18Z" fill="white"/>
</svg>
