<svg width="22" height="22" viewBox="0 0 22 22" fill="none" xmlns="http://www.w3.org/2000/svg">
<path d="M11 20.6491C11.2192 20.6491 11.4289 20.6298 11.6672 20.6104L12.1915 21.6163C12.3154 21.8968 12.5919 22.0322 12.9064 21.9935C13.2019 21.9355 13.4211 21.7034 13.4593 21.3939L13.6118 20.2622C14.0407 20.1462 14.4601 19.9818 14.87 19.8173L15.6898 20.5621C15.9185 20.7749 16.214 20.8135 16.5 20.6588C16.7669 20.504 16.8718 20.2139 16.8146 19.9044L16.5763 18.7921C16.9385 18.5406 17.2816 18.2505 17.6057 17.9313L18.6352 18.3665C18.9211 18.4923 19.2071 18.4149 19.4263 18.1538C19.617 17.941 19.6456 17.6218 19.4835 17.3607L18.883 16.3838C19.1308 16.0259 19.3406 15.6294 19.5407 15.2135L20.6655 15.2715C20.961 15.2909 21.2374 15.1071 21.3328 14.8169C21.4281 14.5268 21.3328 14.2173 21.0945 14.0335L20.2175 13.3275C20.3319 12.9019 20.4177 12.457 20.4558 11.9927L21.5139 11.6542C21.8094 11.5478 22 11.306 22 10.9965C22 10.6774 21.8094 10.4452 21.5139 10.3388L20.4558 9.99065C20.4177 9.53607 20.3224 9.10083 20.2175 8.65593L21.0945 7.94988C21.3328 7.76611 21.4281 7.47595 21.3328 7.18579C21.2374 6.88596 20.961 6.71187 20.6655 6.73121L19.5407 6.7699C19.3406 6.35401 19.1308 5.96713 18.883 5.5996L19.4835 4.6324C19.6456 4.38093 19.617 4.06176 19.4263 3.83931C19.2071 3.58784 18.9211 3.51046 18.6257 3.62652L17.6057 4.05209C17.2816 3.75226 16.9385 3.45243 16.5763 3.19129L16.8146 2.08869C16.8718 1.76952 16.7574 1.48903 16.5 1.34395C16.214 1.17953 15.909 1.20854 15.6898 1.431L14.87 2.17574C14.4601 2.00164 14.0407 1.84689 13.6118 1.72116L13.4593 0.608884C13.4211 0.299382 13.2019 0.0672561 12.9064 0.00922452C12.5919 -0.0391351 12.3154 0.105944 12.1915 0.367086L11.6672 1.38264C11.4289 1.36329 11.2192 1.35362 11 1.35362C10.7712 1.35362 10.5615 1.36329 10.3232 1.38264L9.79896 0.367086C9.67504 0.105944 9.39861 -0.0391351 9.08406 0.00922452C8.78856 0.0672561 8.56932 0.299382 8.5312 0.608884L8.37868 1.72116C7.94974 1.84689 7.53033 2.00164 7.12045 2.17574L6.30069 1.44067C6.08146 1.21822 5.77643 1.1892 5.49047 1.34395C5.2331 1.48903 5.11872 1.76952 5.17591 2.09836L5.41421 3.19129C5.05199 3.45243 4.70884 3.75226 4.38475 4.05209L3.35529 3.62652C3.06932 3.51046 2.78336 3.58784 2.56412 3.83931C2.37348 4.06176 2.35442 4.38093 2.50693 4.6324L3.10745 5.5996C2.85962 5.96713 2.64991 6.35401 2.44974 6.7699L1.32496 6.73121C1.02946 6.71187 0.753033 6.88596 0.657712 7.18579C0.562392 7.47595 0.64818 7.77578 0.896014 7.94988L1.77296 8.6656C1.66811 9.10083 1.57279 9.53607 1.54419 9.99065L0.476603 10.3388C0.171577 10.4452 0 10.6774 0 10.9965C0 11.306 0.171577 11.5478 0.476603 11.6542L1.54419 11.9927C1.57279 12.457 1.66811 12.9019 1.77296 13.3275L0.896014 14.0335C0.657712 14.2173 0.562392 14.5268 0.657712 14.8073C0.753033 15.1071 1.02946 15.2909 1.33449 15.2715L2.44974 15.2135C2.64991 15.6294 2.85962 16.0259 3.10745 16.3838L2.50693 17.3607C2.34489 17.6218 2.37348 17.941 2.56412 18.1538C2.78336 18.4149 3.06932 18.4923 3.36482 18.3665L4.38475 17.9313C4.70884 18.2505 5.05199 18.5406 5.41421 18.7921L5.17591 19.914C5.11872 20.2139 5.2331 20.504 5.49047 20.6588C5.77643 20.8135 6.08146 20.7749 6.30069 20.5621L7.12045 19.8173C7.53033 19.9818 7.94974 20.1462 8.37868 20.2719L8.5312 21.3939C8.56932 21.7034 8.78856 21.9355 9.09359 21.9935C9.39861 22.0322 9.67504 21.8871 9.79896 21.626L10.3232 20.6104C10.552 20.6298 10.7712 20.6491 11 20.6491ZM13.6118 10.1454C13.1161 8.87838 12.1248 8.19167 10.9809 8.19167C10.8284 8.19167 10.6568 8.21102 10.3804 8.26905L7.92114 3.97471C8.85529 3.54915 9.89428 3.31702 11 3.31702C14.9177 3.31702 18.0442 6.2863 18.4541 10.1454H13.6118ZM3.5078 10.9965C3.5078 8.47216 4.65165 6.24762 6.47227 4.85486L8.96014 9.16854C8.45494 9.75853 8.22617 10.3775 8.22617 11.0255C8.22617 11.6446 8.44541 12.2249 8.95061 12.8342L6.39601 17.0898C4.62305 15.6874 3.5078 13.4822 3.5078 10.9965ZM9.84662 11.0159C9.84662 10.3679 10.3804 9.86492 10.9905 9.86492C11.6291 9.86492 12.1438 10.3679 12.1438 11.0159C12.1438 11.6542 11.6291 12.1765 10.9905 12.1765C10.3899 12.1765 9.84662 11.6542 9.84662 11.0159ZM11 18.676C9.86568 18.676 8.79809 18.4246 7.83536 17.97L10.3709 13.7627C10.6378 13.8304 10.8189 13.8401 10.9809 13.8401C12.1343 13.8401 13.1257 13.1437 13.6023 11.8477H18.4541C18.0442 15.6971 14.9177 18.676 11 18.676Z" fill="#D1D1D1"/>
</svg>
