<svg width="16" height="19" viewBox="0 0 16 19" fill="none" xmlns="http://www.w3.org/2000/svg">
<path d="M7.40663 4.07436C7.53288 4.07436 7.60863 3.99222 7.62546 3.87722C7.86113 2.56291 7.84429 2.52183 9.29195 2.25076C9.4182 2.22611 9.49395 2.1604 9.49395 2.03718C9.49395 1.91396 9.40978 1.84003 9.29195 1.82361C7.84429 1.58539 7.86113 1.5361 7.62546 0.197147C7.60863 0.0821444 7.53288 0 7.40663 0C7.28038 0 7.20463 0.0821444 7.1878 0.205361C6.96055 1.51146 6.97738 1.55253 5.5213 1.82361C5.39506 1.84003 5.31931 1.91396 5.31931 2.03718C5.31931 2.1604 5.39506 2.22611 5.52972 2.25076C6.96896 2.5054 6.95213 2.54648 7.1878 3.87722C7.20463 3.99222 7.28038 4.07436 7.40663 4.07436ZM3.32457 9.87376C3.50131 9.87376 3.6444 9.75054 3.66123 9.57804C3.95581 7.40943 4.01473 7.40121 6.33772 6.98227C6.51447 6.94942 6.64072 6.8262 6.64072 6.64548C6.64072 6.46476 6.50605 6.33333 6.33772 6.30869C4.02315 5.99654 3.95581 5.93083 3.66123 3.72114C3.6444 3.54042 3.50973 3.40899 3.32457 3.40899C3.1394 3.40899 2.99632 3.54042 2.97948 3.72936C2.71015 5.88975 2.60915 5.88975 0.302998 6.30869C0.126249 6.34155 0 6.46476 0 6.64548C0 6.83441 0.126249 6.94942 0.345082 6.98227C2.61757 7.32728 2.71015 7.393 2.97948 9.55339C2.99632 9.75054 3.1394 9.87376 3.32457 9.87376ZM9.23304 19C9.5192 19 9.73803 18.7946 9.78853 18.5071C10.3945 14.096 11.0342 13.4306 15.4698 12.946C15.7812 12.9131 16 12.6831 16 12.3956C16 12.1081 15.7812 11.8863 15.4698 11.8452C11.0426 11.3277 10.4366 10.7034 9.78853 6.29226C9.73803 5.99654 9.5192 5.79118 9.23304 5.79118C8.93845 5.79118 8.71962 5.99654 8.66912 6.29226C8.06312 10.7034 7.42346 11.3606 2.9879 11.8452C2.6849 11.8781 2.46607 12.1081 2.46607 12.3956C2.46607 12.6831 2.67649 12.9049 2.9879 12.946C7.41504 13.5292 8.00421 14.096 8.66912 18.5071C8.71962 18.7946 8.94687 19 9.23304 19Z" fill="#4D4E50"/>
</svg>
