<svg width="20" height="15" viewBox="0 0 20 15" fill="none" xmlns="http://www.w3.org/2000/svg">
<path d="M1.83447 10.957H4.18359C4.25 10.957 4.31641 10.9736 4.36621 11.0234L8.01855 14.2856C8.4502 14.6758 8.78223 14.8501 9.21387 14.8501C9.82812 14.8501 10.2847 14.4019 10.2847 13.7876V1.1123C10.2847 0.498047 9.82812 0 9.20557 0C8.77393 0 8.4834 0.190918 8.01855 0.605957L4.36621 3.85156C4.31641 3.90137 4.25 3.91797 4.18359 3.91797H1.83447C0.614258 3.91797 0 4.55713 0 5.84375V9.03125C0 10.3179 0.614258 10.957 1.83447 10.957ZM16.4189 13.3228C16.7925 13.5552 17.249 13.4722 17.5063 13.0903C18.5938 11.563 19.2163 9.521 19.2163 7.4209C19.2163 5.3208 18.5938 3.26221 17.5063 1.75146C17.249 1.36963 16.7925 1.27832 16.4189 1.51904C16.0288 1.76807 15.9707 2.24951 16.2612 2.68115C17.1494 3.97607 17.6558 5.66113 17.6558 7.4209C17.6558 9.17236 17.1328 10.8574 16.2612 12.1606C15.979 12.5923 16.0288 13.0737 16.4189 13.3228ZM1.97559 9.49609C1.69336 9.49609 1.56055 9.36328 1.56055 9.08105V5.79395C1.56055 5.51172 1.69336 5.37891 1.97559 5.37891H4.56543C4.78955 5.37891 4.95557 5.3374 5.15479 5.16309L8.4751 2.1333C8.5166 2.1001 8.55811 2.06689 8.60791 2.06689C8.67432 2.06689 8.72412 2.1167 8.72412 2.19141V12.667C8.72412 12.7417 8.67432 12.7915 8.61621 12.7915C8.56641 12.7915 8.5249 12.7666 8.4751 12.7251L5.15479 9.71191C4.96387 9.5459 4.78955 9.49609 4.56543 9.49609H1.97559ZM13.1069 11.1064C13.4556 11.3306 13.9204 11.2559 14.1694 10.8906C14.8335 10.0024 15.2319 8.73242 15.2319 7.4209C15.2319 6.10938 14.8335 4.84766 14.1694 3.94287C13.9204 3.58594 13.4556 3.50293 13.1069 3.74365C12.7085 4.00928 12.6338 4.49072 12.9492 4.95557C13.4141 5.61133 13.6714 6.49121 13.6714 7.4209C13.6714 8.34229 13.4058 9.22217 12.9492 9.88623C12.6338 10.3594 12.7085 10.8325 13.1069 11.1064Z" fill="white"/>
</svg>
