<svg width="18" height="17" viewBox="0 0 18 17" fill="none" xmlns="http://www.w3.org/2000/svg">
<path fill-rule="evenodd" clip-rule="evenodd" d="M1.94913 5.08008H15.2226C16.4485 5.08008 17.1629 4.42743 17.1629 3.21033V1.86975C17.1629 0.679108 16.4485 0 15.2226 0H1.94913C0.723206 0 0 0.670288 0 1.86975V3.21033C0 4.42743 0.723206 5.08008 1.94913 5.08008ZM2.28427 3.51019C1.94913 3.51019 1.76392 3.31616 1.76392 2.98102V2.10788C1.76392 1.77274 1.94913 1.56989 2.28427 1.56989H14.8786C15.2226 1.56989 15.399 1.77274 15.399 2.10788V2.98102C15.399 3.31616 15.2226 3.51019 14.8786 3.51019H2.28427ZM0 9.56251C0 8.9757 0.475698 8.50001 1.0625 8.50001H15.9375C16.5243 8.50001 17 8.9757 17 9.56251C17 10.1493 16.5243 10.625 15.9375 10.625H1.0625C0.475698 10.625 0 10.1493 0 9.56251ZM1.0625 14.875C0.475698 14.875 0 15.3507 0 15.9375C0 16.5243 0.475698 17 1.0625 17H15.9375C16.5243 17 17 16.5243 17 15.9375C17 15.3507 16.5243 14.875 15.9375 14.875H1.0625Z" fill="#D1D1D1"/>
</svg>
