<svg width="12" height="17" viewBox="0 0 12 17" fill="none" xmlns="http://www.w3.org/2000/svg">
<path d="M1.95068 16.7261H9.86963C11.1812 16.7261 11.8286 16.0703 11.8286 14.6426V8.64111C11.8286 7.37939 11.314 6.72363 10.2681 6.59912V4.70654C10.2681 1.52734 8.13477 0 5.91016 0C3.68555 0 1.55225 1.52734 1.55225 4.70654V6.59912C0.506348 6.72363 0 7.37939 0 8.64111V14.6426C0 16.0703 0.647461 16.7261 1.95068 16.7261ZM3.30371 4.55713C3.30371 2.71436 4.47412 1.68506 5.91016 1.68506C7.34619 1.68506 8.5166 2.71436 8.5166 4.55713V6.57422H3.30371V4.55713ZM2.34082 15.0576C1.99219 15.0576 1.80957 14.8916 1.80957 14.4766V8.81543C1.80957 8.39209 1.99219 8.23438 2.34082 8.23438H9.48779C9.83643 8.23438 10.0107 8.39209 10.0107 8.81543V14.4766C10.0107 14.8916 9.83643 15.0576 9.48779 15.0576H2.34082Z" fill="white"/>
</svg>
