<svg width="16" height="16" viewBox="0 0 16 16" fill="none" xmlns="http://www.w3.org/2000/svg">
<path d="M11.949 9.45459L11.9573 1.1123C11.9573 0.498047 11.4924 0 10.8699 0C10.4465 0 10.1477 0.190918 9.68286 0.605957L6.20483 3.70215L7.25903 4.74805L10.1394 2.1333C10.1809 2.1001 10.2224 2.06689 10.2805 2.06689C10.3386 2.06689 10.3884 2.1167 10.3884 2.19141V7.88574L11.949 9.45459ZM14.7131 15.6553C14.9705 15.9126 15.3938 15.9126 15.6428 15.6553C15.9001 15.3979 15.9084 14.9829 15.6428 14.7256L1.13306 0.21582C0.875732 -0.0415039 0.444092 -0.0415039 0.186768 0.21582C-0.0622559 0.464844 -0.0622559 0.896484 0.186768 1.15381L14.7131 15.6553ZM3.49878 10.957H5.8562C5.92261 10.957 5.98901 10.9819 6.03882 11.0234L9.69116 14.2856C10.1228 14.6758 10.4548 14.8501 10.8865 14.8501C11.2766 14.8501 11.6003 14.6675 11.7913 14.3354L10.4382 12.9907L6.77759 9.68701C6.61157 9.5293 6.48706 9.49609 6.26294 9.49609H3.63989C3.35767 9.49609 3.23315 9.36328 3.23315 9.08105V5.76904L2.02124 4.56543C1.78882 4.86426 1.66431 5.2876 1.66431 5.84375V9.03125C1.66431 10.3179 2.28687 10.957 3.49878 10.957Z" fill="white"/>
</svg>
